#!OML:ASF F:\VICON\USERDATA\Patient Classification 1\PLAYGROUND\JustinFriday\JustinFriday.ASF
:FULLY-SPECIFIED
:DEGREES
3383
root -27.9056 17.2903 -7.3811 363.797 19.3233 -3.42581
lowerback 11.0845 0.90267 -2.75537
upperback -5.20277 0.864242 0.76905
thorax -11.9765 0.668983 2.20952
lowerneck 13.8892 -8.72272 -5.46622
upperneck -2.69604 -11.5277 18.9714
head -1.63782 -6.48348 7.23332
rclavicle 1.53002e-014 4.77083e-015
rhumerus -53.108 -22.2909 -65.9437
rradius 36.1905
rwrist -10.8121
rhand 0.778365 -408.112
rfingers 7.12502
rthumb 26.3357 -436.304
lclavicle 1.53002e-014 4.77083e-015
lhumerus -29.4296 -14.8718 66.5625
lradius 34.2913
lwrist 0.287818
lhand -7.65069 -6.94758
lfingers 7.12502
lthumb 18.2449 22.2168
rfemur -29.643 9.16775 13.0439
rtibia 20.5315
rfoot -20.8357 -16.2882
rtoes 32.3097
lfemur 9.99612 10.5924 -16.9548
ltibia 7.93555
lfoot -21.8339 24.4244
ltoes 7.01456
3384
root -27.7148 17.3534 -7.26969 369.375 23.4075 2.52704
lowerback 5.03002 0.0156503 -6.49804
upperback -5.8063 -0.585418 -0.305044
thorax -8.94232 0.138189 3.39311
lowerneck 16.1943 -9.75514 -5.3261
upperneck -4.30684 -12.716 17.9875
head -2.38812 -7.18585 7.13929
rclavicle 3.52843e-014 -2.52457e-014
rhumerus -50.6686 -24.6917 -62.3131
rradius 30.7976
rwrist -12.4138
rhand 1.09406 -398.04
rfingers 7.12502
rthumb 26.6379 -426.186
lclavicle 3.52843e-014 -2.52457e-014
lhumerus -28.1834 -14.8418 68.2248
lradius 33.1907
lwrist -1.36363
lhand -6.78074 -10.3954
lfingers 7.12502
lthumb 19.0817 18.6886
rfemur -32.9274 -5.10355 10.0742
rtibia 19.9378
rfoot -5.06674 -15.7965
rtoes -9.83441
lfemur 6.06597 5.01858 -23.785
ltibia 8.43982
lfoot -20.5428 26.8189
ltoes 2.81261
3385
root -27.9039 17.343 -7.20065 365.72 19.6935 -1.56492
lowerback 8.43088 0.997893 -4.90747
upperback -5.47245 0.791057 0.822656
thorax -10.7302 0.783593 3.51093
lowerneck 13.7308 -9.53944 -5.68737
upperneck -1.68676 -12.8366 18.0625
head -1.18238 -7.04805 6.93939
rclavicle -5.11436e-014 -2.5842e-015
rhumerus -51.7307 -23.067 -64.719
rradius 33.2801
rwrist -13.9479
rhand 0.891201 -397.951
rfingers 7.12502
rthumb 26.4437 -426.126
lclavicle -5.11436e-014 -2.5842e-015
lhumerus -28.5437 -15.3191 67.4636
lradius 34.773
lwrist 1.26617
lhand -8.49128 -7.73624
lfingers 7.12502
lthumb 17.4361 21.5018
rfemur -30.4285 8.19433 11.4201
rtibia 18.0783
rfoot -7.98961 -23.8734
rtoes 9.35766
lfemur 7.1882 8.14543 -19.1271
ltibia 11.3178
lfoot -23.7618 26.1736
ltoes 6.35536
3386
root -27.715 17.3305 -7.09775 369.721 23.7936 2.75145
lowerback 5.91379 -1.05059 -4.31885
upperback -5.84842 -1.92316 -0.943866
thorax -9.42897 -0.671035 1.68241
lowerneck 9.6043 -9.26335 -6.59799
upperneck 1.093 -12.95 18.1181
head 0.370953 -6.81456 6.73256
rclavicle 1.3623e-014 1.82882e-014
rhumerus -52.3347 -22.7374 -65.52
rradius 33.9841
rwrist -8.75717
rhand 0.189565 -404.268
rfingers 7.12502
rthumb 25.7719 -432.543
lclavicle 1.3623e-014 1.82882e-014
lhumerus -28.3473 -14.7937 66.7638
lradius 35.8602
lwrist 2.31602
lhand -9.23593 -6.42055
lfingers 7.12502
lthumb 16.7193 22.8795
rfemur -33.0864 -8.22879 11.2346
rtibia 19.8385
rfoot -2.94435 -12.7469
rtoes -5.30016
lfemur 7.31161 3.4344 -23.7955
ltibia 6.47465
lfoot -19.1779 28.2916
ltoes 1.73223
3387
root -27.9058 17.3192 -7.00486 365.32 20.3246 -2.47196
lowerback 8.88051 0.468114 -2.95862
upperback -5.68656 0.333719 0.975017
thorax -11.1605 0.437545 2.65823
lowerneck 12.6516 -9.25039 -6.13346
upperneck -0.97933 -12.6213 17.6849
head -0.823233 -6.85538 6.79311
rclavicle -1.2014e-014 4.37326e-015
rhumerus -50.5886 -23.1185 -65.1587
rradius 30.6879
rwrist -7.93732
rhand -0.195024 -406.972
rfingers 7.12502
rthumb 25.4036 -435.299
lclavicle -1.2014e-014 4.37326e-015
lhumerus -28.7146 -14.9075 67.2124
lradius 36.3761
lwrist 2.25857
lhand -9.36178 -5.85652
lfingers 7.12502
lthumb 16.5982 23.4537
rfemur -31.3817 4.62659 14.0682
rtibia 21.2736
rfoot -6.33582 -20.3756
rtoes 2.78017
lfemur 13.8801 7.14657 -17.7225
ltibia 7.31528e-014
lfoot -18.2467 27.4255
ltoes 6.61243
3388
root -27.8135 17.4382 -6.90659 368.103 22.3948 0.778866
lowerback 5.54649 -0.68962 -4.74691
upperback -5.31237 -1.35377 0.205462
thorax -8.62455 -0.352985 3.05496
lowerneck 14.4805 -9.51584 -4.98335
upperneck -3.73128 -12.471 16.9468
head -2.05726 -6.93652 6.61629
rclavicle 5.69518e-014 3.77691e-015
rhumerus -50.344 -22.2985 -66.3495
rradius 33.4389
rwrist -10.9582
rhand 0.0453107 -408.816
rfingers 7.12502
rthumb 25.6338 -437.111
lclavicle 5.69518e-014 3.77691e-015
lhumerus -27.6722 -13.2293 66.7507
lradius 36.7626
lwrist 2.16007
lhand -10.08 -6.5475
lfingers 7.12502
lthumb 15.9066 22.8192
rfemur -32.8197 -4.27951 13.1982
rtibia 23.2413
rfoot -4.92919 -14.0413
rtoes -3.04273
lfemur 12.2693 4.68641 -21.3339
ltibia -2.22639e-014
lfoot -18.6548 27.3332
ltoes 7.8542
3389
root -27.773 17.4993 -6.84973 368.247 22.2231 0.376479
lowerback 7.20457 -1.17744 -1.83551
upperback -6.05717 -1.84079 -0.489839
thorax -10.4835 -0.76834 0.800617
lowerneck 12.903 -9.66576 -4.3703
upperneck -2.92766 -12.7175 16.0616
head -1.63114 -6.94362 6.11797
rclavicle -4.82612e-014 1.19271e-015
rhumerus -50.9193 -22.3234 -66.9999
rradius 30.4397
rwrist -10.6879
rhand -0.152721 -404.326
rfingers 7.12502
rthumb 25.4441 -432.648
lclavicle -4.82612e-014 1.19271e-015
lhumerus -28.8657 -13.0294 65.4792
lradius 37.9687
lwrist 2.82829
lhand -11.0323 -7.04136
lfingers 7.12502
lthumb 14.9894 22.3961
rfemur -32.4674 -6.79669 14.4029
rtibia 23.3944
rfoot -6.04173 -10.3935
rtoes 4.48262
lfemur 12.0407 4.7375 -21.105
ltibia 2.8625e-014
lfoot -17.1182 28.3371
ltoes 4.82956
3390
root -27.8628 17.4586 -6.6661 367.214 21.5537 -0.0312461
lowerback 7.52705 -0.847405 -3.25671
upperback -5.55448 -1.5029 0.240373
thorax -10.0772 -0.48279 2.32761
lowerneck 10.8239 -10.4425 -4.09348
upperneck -1.67111 -13.9137 14.9244
head -0.891272 -7.38201 5.55036
rclavicle -3.37095e-014 2.98177e-015
rhumerus -51.6945 -22.2476 -66.6248
rradius 32.7398
rwrist -8.67936
rhand -0.37354 -415.216
rfingers 7.12502
rthumb 25.2325 -443.567
lclavicle -3.37095e-014 2.98177e-015
lhumerus -28.4857 -12.4283 66.0054
lradius 38.4631
lwrist 2.95082
lhand -11.632 -7.02602
lfingers 7.12502
lthumb 14.4116 22.4536
rfemur -31.7234 -3.60361 14.6821
rtibia 23.4726
rfoot -4.40886 -13.211
rtoes 0.697427
lfemur 13.2854 5.16473 -20.031
ltibia -4.13472e-014
lfoot -14.9834 29.432
ltoes 0.042213
3391
root -27.958 17.3725 -6.75189 367.482 16.6347 -1.44939
lowerback 8.77873 1.05862 -3.77242
upperback -6.06537 1.01835 0.962422
thorax -11.602 0.843536 2.97706
lowerneck 11.8959 -10.7161 -3.70516
upperneck -3.06483 -14.0713 14.6261
head -1.50436 -7.53595 5.53616
rclavicle 2.40638e-014 -1.08338e-014
rhumerus -49.2674 -23.2078 -65.4562
rradius 29.0988
rwrist -7.61566
rhand -0.498541 -407.085
rfingers 7.12502
rthumb 25.1128 -435.454
lclavicle 2.40638e-014 -1.08338e-014
lhumerus -28.0015 -12.2398 66.8075
lradius 38.7245
lwrist 2.96608
lhand -12.0845 -7.96384
lfingers 7.12502
lthumb 13.9756 21.5464
rfemur -33.8307 0.151242 15.8734
rtibia 22.3571
rfoot -2.93369 -11.8569
rtoes 9.99884
lfemur 13.2641 9.98127 -19.0947
ltibia -2.54444e-014
lfoot -18.0895 28.2542
ltoes 7.70365
3392
root -28.0755 17.3407 -6.6014 365.39 15.3166 -3.08838
lowerback 9.29512 1.4213 -3.99871
upperback -5.55806 1.52876 1.63964
thorax -11.418 1.12549 3.7428
lowerneck 14.2864 -9.92728 -3.30403
upperneck -4.78731 -12.7153 14.8576
head -2.54482 -7.01266 5.76639
rclavicle -2.46307e-014 -7.95139e-015
rhumerus -48.3677 -22.7254 -66.8692
rradius 28.9652
rwrist -8.52455
rhand -0.790721 -413.952
rfingers 7.12502
rthumb 24.8328 -442.359
lclavicle -2.46307e-014 -7.95139e-015
lhumerus -28.9583 -12.6797 66.4711
lradius 39.9895
lwrist 3.81222
lhand -12.5906 -8.90077
lfingers 7.12502
lthumb 13.4878 20.6425
rfemur -31.6123 8.07009 15.8984
rtibia 21.2455
rfoot -5.84768 -17.5825
rtoes 19.0114
lfemur 13.1114 11.0658 -16.3034
ltibia 5.19441
lfoot -23.1314 26.7983
ltoes 11.7843
3393
root -27.9725 17.3622 -6.51421 366.98 17.0372 -1.97086
lowerback 8.77403 0.209126 -1.98253
upperback -6.14001 0.0827323 0.620765
thorax -11.5791 0.234836 1.77175
lowerneck 13.9941 -9.28418 -4.04007
upperneck -4.02908 -12.0233 15.7716
head -2.24511 -6.66895 6.0868
rclavicle -5.59082e-017 1.21259e-014
rhumerus -49.9198 -23.1561 -66.5176
rradius 28.292
rwrist -8.77352
rhand -0.548008 -402.667
rfingers 7.12502
rthumb 25.0654 -431.042
lclavicle -5.59082e-017 1.21259e-014
lhumerus -30.1161 -12.5715 65.594
lradius 41.6187
lwrist 4.97751
lhand -13.4146 -8.33841
lfingers 7.12502
lthumb 12.6935 21.2558
rfemur -32.1081 -0.738194 17.043
rtibia 20.5226
rfoot -1.93146 -11.0278
rtoes 16.1988
lfemur 10.7084 9.22545 -17.9602
ltibia 7.41623
lfoot -21.2407 28.56
ltoes 2.39715
3394
root -27.9376 17.3728 -6.28432 366.809 19.6271 -1.20954
lowerback 8.15003 -0.855443 -1.72611
upperback -5.69158 -1.31667 0.520005
thorax -10.6344 -0.47953 1.75456
lowerneck 11.5402 -9.11222 -4.17685
upperneck -2.7792 -12.0008 15.1568
head -1.50999 -6.50204 5.71541
rclavicle 1.34335e-014 1.98785e-016
rhumerus -50.5548 -21.8637 -67.4819
rradius 29.8863
rwrist -7.83566
rhand -0.893941 -408.356
rfingers 7.12502
rthumb 24.7339 -436.777
lclavicle 1.34335e-014 1.98785e-016
lhumerus -30.1091 -11.892 65.7674
lradius 42.3748
lwrist 5.50365
lhand -14.0037 -7.73302
lfingers 7.12502
lthumb 12.1255 21.8956
rfemur -30.6497 -3.86346 16.8483
rtibia 20.5498
rfoot -2.20889 -10.3422
rtoes 6.10769
lfemur 11.2802 6.32402 -18.0026
ltibia 7.8183
lfoot -18.6199 29.2112
ltoes -4.36538
3395
root -27.95 17.3698 -6.14267 366.818 19.5325 -0.803165
lowerback 7.93934 -0.78025 -2.28155
upperback -5.30908 -1.25765 0.748515
thorax -10.0705 -0.414795 2.29093
lowerneck 9.76672 -9.91182 -4.33353
upperneck -2.10513 -13.2022 14.4325
head -0.936546 -6.99107 5.38755
rclavicle -1.95912e-015 6.16232e-015
rhumerus -50.0709 -21.371 -68.0719
rradius 31.9379
rwrist -8.61311
rhand -1.00321 -414.532
rfingers 7.12502
rthumb 24.6291 -442.967
lclavicle -1.95912e-015 6.16232e-015
lhumerus -29.4565 -11.2278 66.5049
lradius 42.6015
lwrist 6.02161
lhand -14.6516 -8.43598
lfingers 7.12502
lthumb 11.5008 21.2285
rfemur -30.8062 -2.71327 16.3271
rtibia 21.8548
rfoot -2.57415 -11.4522
rtoes 2.15631
lfemur 13.8299 6.1179 -18.1983
ltibia 4.21486
lfoot -19.5302 27.8913
ltoes 2.19461
3396
root -28.1175 17.3451 -6.15186 366.029 14.1685 -2.598
lowerback 8.5304 1.21788 -3.82526
upperback -5.64218 1.30422 1.62782
thorax -11.0205 0.997385 3.68067
lowerneck 12.7009 -11.2384 -2.44677
upperneck -4.10173 -14.5561 12.5575
head -2.12992 -7.76537 4.85983
rclavicle -1.13369e-014 -9.93923e-016
rhumerus -47.7741 -23.8379 -66.431
rradius 26.2333
rwrist -4.36853
rhand -1.2935 -408.439
rfingers 7.12502
rthumb 24.3509 -436.912
lclavicle -1.13369e-014 -9.93923e-016
lhumerus -30.4364 -12.0619 67.1407
lradius 43.2706
lwrist 6.99747
lhand -15.7802 -9.32097
lfingers 7.12502
lthumb 10.4122 20.4012
rfemur -31.5818 3.87875 18.0242
rtibia 21.9304
rfoot -1.68006 -12.6979
rtoes 3.82492
lfemur 13.8973 11.323 -16.289
ltibia 5.84768
lfoot -23.0799 26.0616
ltoes 9.57352
